# xmcd
#
# Track frame offsets: 
#        150
#        14110
#        27852
#        37275
#        46675
#        59511
#        72672
#        86273
#        95583
#        110048
#        122998
#        130969
#        143992
#        153738
#        168009
#        179174
#        188847
#        198964
#        211213
#        234785
#
# Disc length: 3176 seconds
#
# Revision: 0
# Processed by: cddbd v1.5.2PL0 Copyright (c) Steve Scherf et al.
# Submitted via: ExactAudioCopy v0.99pb5
#
DISCID=290c6614
DTITLE=Sam Mitchell - Bottleneck Slide Guitar
DYEAR=1976
DGENRE=Blues
TTITLE0=Ambidextrous March
TTITLE1=Roll and Tumble
TTITLE2=Laguna Luna
TTITLE3=Paddlin Madeline
TTITLE4=Hambone
TTITLE5=Earl Blues
TTITLE6=Pile Driver
TTITLE7=Dark Was the Night
TTITLE8=Crossroad Blues
TTITLE9=Livingston Blues
TTITLE10=Let Me Play It First Before I Aloha
TTITLE11=Come On In My Kitchen
TTITLE12=Tribute to Elmore
TTITLE13=Sunshine in Houston
TTITLE14=Two Step Swing Thing
TTITLE15=Nobody's Fault But Mine
TTITLE16=Jubilee Jamboree
TTITLE17=Motherless Children
TTITLE18=Rainy Day Blues
TTITLE19=Unknown Track
EXTD=
EXTT0=
EXTT1=
EXTT2=
EXTT3=
EXTT4=
EXTT5=
EXTT6=
EXTT7=
EXTT8=
EXTT9=
EXTT10=
EXTT11=
EXTT12=
EXTT13=
EXTT14=
EXTT15=
EXTT16=
EXTT17=
EXTT18=
EXTT19=
PLAYORDER=
